<svg width="1200" height="300" viewBox="0 0 1200 300" xmlns="http://www.w3.org/2000/svg">
  <!-- Gradient Background -->
  <defs>
    <linearGradient id="ctaGradient" x1="0%" y1="0%" x2="100%" y2="100%">
      <stop offset="0%" stop-color="#6366F1" />
      <stop offset="100%" stop-color="#EC4899" />
    </linearGradient>
  </defs>
  
  <!-- Background -->
  <rect width="1200" height="300" fill="url(#ctaGradient)" />
  
  <!-- Decorative Elements -->
  <path d="M0,100 Q300,150 600,100 Q900,50 1200,100 L1200,300 L0,300 Z" fill="#FFFFFF" fill-opacity="0.05" />
  <path d="M0,150 Q300,200 600,150 Q900,100 1200,150 L1200,300 L0,300 Z" fill="#FFFFFF" fill-opacity="0.05" />
  
  <!-- Abstract Shapes -->
  <circle cx="200" cy="50" r="100" fill="#FFFFFF" fill-opacity="0.03" />
  <circle cx="1000" cy="50" r="80" fill="#FFFFFF" fill-opacity="0.03" />
  <circle cx="600" cy="250" r="120" fill="#FFFFFF" fill-opacity="0.03" />
  
  <!-- Dots Pattern -->
  <g fill="#FFFFFF" fill-opacity="0.1">
    <circle cx="100" cy="50" r="3" />
    <circle cx="150" cy="70" r="3" />
    <circle cx="200" cy="30" r="3" />
    <circle cx="250" cy="90" r="3" />
    <circle cx="300" cy="40" r="3" />
    <circle cx="350" cy="80" r="3" />
    <circle cx="400" cy="60" r="3" />
    <circle cx="450" cy="30" r="3" />
    <circle cx="500" cy="70" r="3" />
    <circle cx="550" cy="50" r="3" />
    <circle cx="600" cy="90" r="3" />
    <circle cx="650" cy="40" r="3" />
    <circle cx="700" cy="60" r="3" />
    <circle cx="750" cy="30" r="3" />
    <circle cx="800" cy="80" r="3" />
    <circle cx="850" cy="50" r="3" />
    <circle cx="900" cy="70" r="3" />
    <circle cx="950" cy="40" r="3" />
    <circle cx="1000" cy="90" r="3" />
    <circle cx="1050" cy="60" r="3" />
    <circle cx="1100" cy="30" r="3" />
    <circle cx="1150" cy="70" r="3" />
  </g>
  
  <!-- More Dots Pattern -->
  <g fill="#FFFFFF" fill-opacity="0.1">
    <circle cx="100" cy="150" r="3" />
    <circle cx="150" cy="170" r="3" />
    <circle cx="200" cy="130" r="3" />
    <circle cx="250" cy="190" r="3" />
    <circle cx="300" cy="140" r="3" />
    <circle cx="350" cy="180" r="3" />
    <circle cx="400" cy="160" r="3" />
    <circle cx="450" cy="130" r="3" />
    <circle cx="500" cy="170" r="3" />
    <circle cx="550" cy="150" r="3" />
    <circle cx="600" cy="190" r="3" />
    <circle cx="650" cy="140" r="3" />
    <circle cx="700" cy="160" r="3" />
    <circle cx="750" cy="130" r="3" />
    <circle cx="800" cy="180" r="3" />
    <circle cx="850" cy="150" r="3" />
    <circle cx="900" cy="170" r="3" />
    <circle cx="950" cy="140" r="3" />
    <circle cx="1000" cy="190" r="3" />
    <circle cx="1050" cy="160" r="3" />
    <circle cx="1100" cy="130" r="3" />
    <circle cx="1150" cy="170" r="3" />
  </g>
</svg>