<svg version="1.1" id="Layer_1" xmlns="http://www.w3.org/2000/svg" xmlns:xlink="http://www.w3.org/1999/xlink" x="0px" y="0px"
	 width="100%" viewBox="0 0 242 85" enable-background="new 0 0 242 85" xml:space="preserve">
<path fill="#020202" opacity="1.000000" stroke="none" 
	d="
M153.000000,86.000000 
	C102.000015,86.000000 51.500031,86.000000 1.000034,86.000000 
	C1.000023,57.666691 1.000023,29.333380 1.000011,1.000053 
	C81.666618,1.000035 162.333237,1.000035 242.999908,1.000018 
	C242.999939,29.333277 242.999939,57.666553 242.999969,85.999916 
	C213.166672,86.000000 183.333328,86.000000 153.000000,86.000000 
M154.872910,46.389362 
	C156.871338,38.556324 158.869766,30.723286 160.929642,22.649397 
	C157.434097,22.649397 154.333527,22.649397 150.898361,22.649397 
	C149.116867,31.165257 147.355453,39.585121 145.594055,48.004986 
	C145.234436,47.960773 144.874817,47.916565 144.515182,47.872353 
	C142.552948,39.558723 140.590698,31.245094 138.578812,22.721169 
	C135.049347,22.721169 131.647125,22.721169 128.100616,22.721169 
	C125.921776,31.484213 123.790291,40.056797 121.658806,48.629383 
	C121.392250,48.632957 121.125694,48.636528 120.859131,48.640102 
	C119.126816,40.061428 117.394501,31.482754 115.621811,22.704147 
	C112.394753,22.704147 109.295227,22.704147 105.593636,22.704147 
	C107.259499,29.397623 108.830421,35.794567 110.446686,42.180035 
	C112.059052,48.550087 113.716843,54.908638 115.316299,61.122982 
	C119.461777,61.122982 123.072708,61.122982 126.796852,61.122982 
	C128.840179,53.265911 130.842484,45.566586 132.844803,37.867260 
	C133.131821,37.939236 133.418839,38.011215 133.705841,38.083191 
	C135.608063,45.771034 137.510269,53.458878 139.414658,61.155487 
	C143.409866,61.155487 147.026108,61.155487 150.876694,61.155487 
	C152.152451,56.433422 153.402145,51.807808 154.872910,46.389362 
M28.669682,76.072205 
	C35.971066,75.455750 39.125393,72.242615 39.464233,65.076408 
	C39.858639,56.735172 44.138489,52.271122 51.994484,52.006889 
	C59.882381,51.741585 63.024128,48.656090 63.459011,40.747643 
	C63.917816,32.404270 68.255867,28.368332 76.833351,27.939554 
	C78.901474,27.836172 81.178757,27.323629 82.924187,26.274456 
	C87.092232,23.769056 88.578094,18.441565 86.790894,13.993643 
	C85.084145,9.745966 80.729607,7.307606 75.891327,7.890329 
	C71.203629,8.454918 67.602119,12.351742 67.163979,17.333305 
	C66.190498,28.401608 63.523193,31.146086 53.053848,31.851677 
	C46.890564,32.267056 43.341980,36.135284 43.120117,42.680202 
	C42.832047,51.178417 38.651596,55.425064 30.179441,55.825802 
	C23.900469,56.122803 19.946482,59.250362 19.163595,64.539215 
	C18.378109,69.845634 21.562595,74.042717 28.669682,76.072205 
M212.270203,59.985458 
	C219.224045,63.136990 225.122757,61.977203 229.205750,56.655621 
	C233.701111,50.796619 233.697067,40.295204 228.744476,34.793655 
	C226.956772,32.807770 224.203033,30.680723 221.764877,30.520170 
	C217.774002,30.257368 213.680664,31.550877 209.294769,32.240749 
	C209.294769,28.963692 209.294769,24.882551 209.294769,20.594330 
	C205.984024,20.594330 203.098816,20.594330 200.207123,20.594330 
	C200.207123,34.316154 200.207123,47.732697 200.207123,61.130653 
	C205.770493,61.415279 205.762558,61.401493 210.345139,58.761833 
	C210.533676,58.653217 211.136307,59.263432 212.270203,59.985458 
M82.656509,34.867458 
	C74.595161,33.999210 70.248947,37.656139 69.992371,45.523117 
	C69.721092,53.841152 65.492165,58.065948 56.963184,58.539593 
	C50.127117,58.919224 45.894104,62.848534 45.924011,68.786751 
	C45.952076,74.359863 50.511894,78.931740 56.045029,78.934540 
	C61.892467,78.937492 65.905815,74.519226 66.177383,67.779900 
	C66.507111,59.597275 70.801956,55.188324 78.773735,54.848885 
	C84.940483,54.586304 88.890038,51.803444 89.970154,46.959896 
	C91.107033,41.861801 88.994850,38.041351 82.656509,34.867458 
M27.613092,29.112040 
	C20.288374,29.863428 16.324900,33.782631 16.653044,39.949661 
	C16.942327,45.386368 21.449091,49.574493 26.889595,49.462471 
	C33.050629,49.335609 36.650314,45.099667 36.937107,37.639027 
	C37.205219,30.664461 41.373150,26.142530 48.270245,25.397854 
	C49.425972,25.273069 50.607021,25.388443 51.764538,25.273579 
	C56.632004,24.790569 60.102959,21.518259 60.852310,16.766556 
	C61.570091,12.215080 59.041935,7.780715 54.666302,5.916348 
	C47.793835,2.988129 41.174175,7.621684 40.686699,15.701628 
	C40.154842,24.517149 36.737843,28.270121 27.613092,29.112040 
M179.632629,48.180256 
	C184.578888,48.180256 189.525146,48.180256 194.388489,48.180256 
	C195.743149,38.583157 191.032471,31.671156 182.534180,30.185223 
	C173.671127,28.635508 165.701401,33.816505 164.144989,42.139751 
	C162.349777,51.740189 167.135361,59.529629 176.026016,61.478390 
	C184.265640,63.284447 191.841507,58.924755 194.018753,49.809006 
	C189.437225,51.215393 185.486740,52.174366 181.739120,53.648968 
	C177.897461,55.160576 174.721848,53.340183 173.774750,48.180256 
	C175.450653,48.180256 177.061005,48.180256 179.632629,48.180256 
z"/>
<path fill="#F6F6F6" opacity="1.000000" stroke="none" 
	d="
M154.762390,46.785774 
	C153.402145,51.807808 152.152451,56.433422 150.876694,61.155487 
	C147.026108,61.155487 143.409866,61.155487 139.414658,61.155487 
	C137.510269,53.458878 135.608063,45.771034 133.705841,38.083191 
	C133.418839,38.011215 133.131821,37.939236 132.844803,37.867260 
	C130.842484,45.566586 128.840179,53.265911 126.796852,61.122982 
	C123.072708,61.122982 119.461777,61.122982 115.316299,61.122982 
	C113.716843,54.908638 112.059052,48.550087 110.446686,42.180035 
	C108.830421,35.794567 107.259499,29.397623 105.593636,22.704147 
	C109.295227,22.704147 112.394753,22.704147 115.621811,22.704147 
	C117.394501,31.482754 119.126816,40.061428 120.859131,48.640102 
	C121.125694,48.636528 121.392250,48.632957 121.658806,48.629383 
	C123.790291,40.056797 125.921776,31.484213 128.100616,22.721169 
	C131.647125,22.721169 135.049347,22.721169 138.578812,22.721169 
	C140.590698,31.245094 142.552948,39.558723 144.515182,47.872353 
	C144.874817,47.916565 145.234436,47.960773 145.594055,48.004986 
	C147.355453,39.585121 149.116867,31.165257 150.898361,22.649397 
	C154.333527,22.649397 157.434097,22.649397 160.929642,22.649397 
	C158.869766,30.723286 156.871338,38.556324 154.762390,46.785774 
z"/>
<path fill="#FAFAFA" opacity="1.000000" stroke="none" 
	d="
M28.267139,76.039574 
	C21.562595,74.042717 18.378109,69.845634 19.163595,64.539215 
	C19.946482,59.250362 23.900469,56.122803 30.179441,55.825802 
	C38.651596,55.425064 42.832047,51.178417 43.120117,42.680202 
	C43.341980,36.135284 46.890564,32.267056 53.053848,31.851677 
	C63.523193,31.146086 66.190498,28.401608 67.163979,17.333305 
	C67.602119,12.351742 71.203629,8.454918 75.891327,7.890329 
	C80.729607,7.307606 85.084145,9.745966 86.790894,13.993643 
	C88.578094,18.441565 87.092232,23.769056 82.924187,26.274456 
	C81.178757,27.323629 78.901474,27.836172 76.833351,27.939554 
	C68.255867,28.368332 63.917816,32.404270 63.459011,40.747643 
	C63.024128,48.656090 59.882381,51.741585 51.994484,52.006889 
	C44.138489,52.271122 39.858639,56.735172 39.464233,65.076408 
	C39.125393,72.242615 35.971066,75.455750 28.267139,76.039574 
z"/>
<path fill="#F9F9F9" opacity="1.000000" stroke="none" 
	d="
M211.908112,59.762100 
	C211.136307,59.263432 210.533676,58.653217 210.345139,58.761833 
	C205.762558,61.401493 205.770493,61.415279 200.207123,61.130653 
	C200.207123,47.732697 200.207123,34.316154 200.207123,20.594330 
	C203.098816,20.594330 205.984024,20.594330 209.294769,20.594330 
	C209.294769,24.882551 209.294769,28.963692 209.294769,32.240749 
	C213.680664,31.550877 217.774002,30.257368 221.764877,30.520170 
	C224.203033,30.680723 226.956772,32.807770 228.744476,34.793655 
	C233.697067,40.295204 233.701111,50.796619 229.205750,56.655621 
	C225.122757,61.977203 219.224045,63.136990 211.908112,59.762100 
M209.662979,43.328987 
	C208.569336,47.465691 209.272522,51.386410 213.483673,52.797729 
	C215.610214,53.510414 219.160416,52.563877 220.974213,51.054504 
	C224.235611,48.340488 223.375931,42.082485 220.081635,39.566803 
	C216.609344,36.915234 212.783401,38.050495 209.662979,43.328987 
z"/>
<path fill="#F9F9F9" opacity="1.000000" stroke="none" 
	d="
M83.019440,34.955807 
	C88.994850,38.041351 91.107033,41.861801 89.970154,46.959896 
	C88.890038,51.803444 84.940483,54.586304 78.773735,54.848885 
	C70.801956,55.188324 66.507111,59.597275 66.177383,67.779900 
	C65.905815,74.519226 61.892467,78.937492 56.045029,78.934540 
	C50.511894,78.931740 45.952076,74.359863 45.924011,68.786751 
	C45.894104,62.848534 50.127117,58.919224 56.963184,58.539593 
	C65.492165,58.065948 69.721092,53.841152 69.992371,45.523117 
	C70.248947,37.656139 74.595161,33.999210 83.019440,34.955807 
z"/>
<path fill="#F9F9F9" opacity="1.000000" stroke="none" 
	d="
M28.030415,29.128006 
	C36.737843,28.270121 40.154842,24.517149 40.686699,15.701628 
	C41.174175,7.621684 47.793835,2.988129 54.666302,5.916348 
	C59.041935,7.780715 61.570091,12.215080 60.852310,16.766556 
	C60.102959,21.518259 56.632004,24.790569 51.764538,25.273579 
	C50.607021,25.388443 49.425972,25.273069 48.270245,25.397854 
	C41.373150,26.142530 37.205219,30.664461 36.937107,37.639027 
	C36.650314,45.099667 33.050629,49.335609 26.889595,49.462471 
	C21.449091,49.574493 16.942327,45.386368 16.653044,39.949661 
	C16.324900,33.782631 20.288374,29.863428 28.030415,29.128006 
z"/>
<path fill="#F8F8F8" opacity="1.000000" stroke="none" 
	d="
M179.151993,48.180256 
	C177.061005,48.180256 175.450653,48.180256 173.774750,48.180256 
	C174.721848,53.340183 177.897461,55.160576 181.739120,53.648968 
	C185.486740,52.174366 189.437225,51.215393 194.018753,49.809006 
	C191.841507,58.924755 184.265640,63.284447 176.026016,61.478390 
	C167.135361,59.529629 162.349777,51.740189 164.144989,42.139751 
	C165.701401,33.816505 173.671127,28.635508 182.534180,30.185223 
	C191.032471,31.671156 195.743149,38.583157 194.388489,48.180256 
	C189.525146,48.180256 184.578888,48.180256 179.151993,48.180256 
M181.962296,38.071739 
	C177.824036,37.057198 174.895828,38.052654 173.415298,42.704605 
	C177.747925,42.704605 181.295120,42.704605 185.880798,42.704605 
	C184.500168,40.852100 183.607986,39.654999 181.962296,38.071739 
z"/>
<path fill="#0D0D0D" opacity="1.000000" stroke="none" 
	d="
M209.777939,42.959526 
	C212.783401,38.050495 216.609344,36.915234 220.081635,39.566803 
	C223.375931,42.082485 224.235611,48.340488 220.974213,51.054504 
	C219.160416,52.563877 215.610214,53.510414 213.483673,52.797729 
	C209.272522,51.386410 208.569336,47.465691 209.777939,42.959526 
z"/>
<path fill="#101010" opacity="1.000000" stroke="none" 
	d="
M182.339050,38.264816 
	C183.607986,39.654999 184.500168,40.852100 185.880798,42.704605 
	C181.295120,42.704605 177.747925,42.704605 173.415298,42.704605 
	C174.895828,38.052654 177.824036,37.057198 182.339050,38.264816 
z"/>
</svg>