<svg width="240" height="40" viewBox="0 0 240 40" xmlns="http://www.w3.org/2000/svg">
  <!-- Twitter/X Icon -->
  <g transform="translate(20, 20)">
    <circle cx="0" cy="0" r="15" fill="#121212" stroke="#FFFFFF" stroke-width="1" />
    <path d="M-6,-6 L6,6 M-6,6 L6,-6" stroke="#FFFFFF" stroke-width="2" stroke-linecap="round" />
  </g>
  
  <!-- LinkedIn Icon -->
  <g transform="translate(60, 20)">
    <circle cx="0" cy="0" r="15" fill="#121212" stroke="#FFFFFF" stroke-width="1" />
    <rect x="-6" y="-2" width="4" height="8" fill="#FFFFFF" />
    <rect x="0" y="-2" width="6" height="8" fill="#FFFFFF" />
    <circle cx="-4" cy="-7" r="2" fill="#FFFFFF" />
  </g>
  
  <!-- GitHub Icon -->
  <g transform="translate(100, 20)">
    <circle cx="0" cy="0" r="15" fill="#121212" stroke="#FFFFFF" stroke-width="1" />
    <circle cx="0" cy="-3" r="6" fill="none" stroke="#FFFFFF" stroke-width="2" />
    <path d="M-5,8 C-10,5 -5,-2 0,-2 C5,-2 10,5 5,8" fill="none" stroke="#FFFFFF" stroke-width="2" />
    <path d="M-5,8 L-5,4 M5,8 L5,4" stroke="#FFFFFF" stroke-width="2" />
  </g>
  
  <!-- Dribbble Icon -->
  <g transform="translate(140, 20)">
    <circle cx="0" cy="0" r="15" fill="#121212" stroke="#FFFFFF" stroke-width="1" />
    <circle cx="0" cy="0" r="8" fill="none" stroke="#FFFFFF" stroke-width="1.5" />
    <path d="M-8,3 C-3,-5 3,-5 8,3" fill="none" stroke="#FFFFFF" stroke-width="1.5" />
    <path d="M-8,-3 C-3,5 3,5 8,-3" fill="none" stroke="#FFFFFF" stroke-width="1.5" />
  </g>
  
  <!-- Behance Icon -->
  <g transform="translate(180, 20)">
    <circle cx="0" cy="0" r="15" fill="#121212" stroke="#FFFFFF" stroke-width="1" />
    <path d="M-7,-3 L0,-3 C2,-3 4,-1 4,1 C4,3 2,5 0,5 L-7,5" stroke="#FFFFFF" stroke-width="1.5" fill="none" />
    <path d="M-7,1 L-1,1" stroke="#FFFFFF" stroke-width="1.5" />
    <path d="M2,-5 L7,-5 M2,5 L7,5" stroke="#FFFFFF" stroke-width="1.5" />
    <path d="M4.5,-5 L4.5,5" stroke="#FFFFFF" stroke-width="1.5" />
  </g>
  
  <!-- Instagram Icon -->
  <g transform="translate(220, 20)">
    <circle cx="0" cy="0" r="15" fill="#121212" stroke="#FFFFFF" stroke-width="1" />
    <rect x="-6" y="-6" width="12" height="12" rx="3" fill="none" stroke="#FFFFFF" stroke-width="1.5" />
    <circle cx="0" cy="0" r="3" fill="none" stroke="#FFFFFF" stroke-width="1.5" />
    <circle cx="5" cy="-5" r="1" fill="#FFFFFF" />
  </g>
</svg>