<svg width="600" height="400" viewBox="0 0 600 400" xmlns="http://www.w3.org/2000/svg">
  <!-- Background -->
  <rect width="600" height="400" fill="#121212" />
  
  <!-- Desk -->
  <rect x="50" y="250" width="500" height="20" rx="5" fill="#3A3A3A" />
  <rect x="70" y="270" width="460" height="10" rx="2" fill="#2A2A2A" />
  
  <!-- Laptop -->
  <g transform="translate(250, 150)">
    <!-- Laptop base -->
    <rect x="-80" y="0" width="160" height="10" rx="2" fill="#555555" />
    <!-- Laptop screen -->
    <rect x="-75" y="-90" width="150" height="90" rx="2" fill="#333333" />
    <rect x="-70" y="-85" width="140" height="80" rx="1" fill="#0F172A" />
    
    <!-- Screen content -->
    <rect x="-60" y="-75" width="50" height="5" rx="1" fill="#6366F1" />
    <rect x="-60" y="-65" width="120" height="3" rx="1" fill="#FFFFFF" opacity="0.5" />
    <rect x="-60" y="-60" width="100" height="3" rx="1" fill="#FFFFFF" opacity="0.5" />
    <rect x="-60" y="-55" width="110" height="3" rx="1" fill="#FFFFFF" opacity="0.5" />
    <rect x="-60" y="-45" width="40" height="20" rx="2" fill="#3B82F6" opacity="0.8" />
    <rect x="-10" y="-45" width="40" height="20" rx="2" fill="#8B5CF6" opacity="0.8" />
    <rect x="40" y="-45" width="20" height="20" rx="2" fill="#EC4899" opacity="0.8" />
    <rect x="-60" y="-20" width="130" height="5" rx="1" fill="#FFFFFF" opacity="0.3" />
  </g>
  
  <!-- Coffee mug -->
  <g transform="translate(400, 200)">
    <path d="M0,0 L20,0 L18,-30 L2,-30 Z" fill="#FFFFFF" />
    <ellipse cx="10" cy="0" rx="10" ry="3" fill="#DDDDDD" />
    <ellipse cx="10" cy="-30" rx="8" ry="2" fill="#EEEEEE" />
    <path d="M20,0 C30,-5 30,-15 20,-20" stroke="#FFFFFF" stroke-width="2" fill="none" />
  </g>
  
  <!-- Plant -->
  <g transform="translate(150, 200)">
    <rect x="-15" y="-30" width="30" height="30" rx="2" fill="#3A3A3A" />
    <path d="M0,-30 C-10,-50 -5,-60 0,-55 C5,-65 15,-50 0,-30" fill="#10B981" />
    <path d="M-5,-40 C-15,-45 -10,-55 -5,-50" stroke="#10B981" stroke-width="2" fill="none" />
    <path d="M5,-40 C15,-45 10,-55 5,-50" stroke="#10B981" stroke-width="2" fill="none" />
  </g>
  
  <!-- Notebook -->
  <g transform="translate(480, 200)">
    <rect x="-25" y="-30" width="50" height="30" rx="2" fill="#6366F1" />
    <line x1="-15" y1="-25" x2="15" y2="-25" stroke="#FFFFFF" stroke-width="1" opacity="0.5" />
    <line x1="-15" y1="-20" x2="10" y2="-20" stroke="#FFFFFF" stroke-width="1" opacity="0.5" />
    <line x1="-15" y1="-15" x2="20" y2="-15" stroke="#FFFFFF" stroke-width="1" opacity="0.5" />
    <line x1="-15" y1="-10" x2="5" y2="-10" stroke="#FFFFFF" stroke-width="1" opacity="0.5" />
  </g>
  
  <!-- Decorative elements -->
  <circle cx="100" cy="50" r="20" fill="#F43F5E" opacity="0.3" />
  <circle cx="500" cy="70" r="30" fill="#8B5CF6" opacity="0.3" />
  <circle cx="300" cy="30" r="15" fill="#3B82F6" opacity="0.3" />
</svg>